<?xml version="1.0" encoding="UTF-8" standalone="no"?>
<!DOCTYPE svg PUBLIC "-//W3C//DTD SVG 1.1//EN"
 "http://www.w3.org/Graphics/SVG/1.1/DTD/svg11.dtd">
<!-- Generated by graphviz version 2.36.0 (20140111.2315)
 -->
<!-- Title: TagCloud Pages: 1 -->
<svg width="257pt" height="108pt"
 viewBox="0.00 0.00 257.00 108.00" xmlns="http://www.w3.org/2000/svg" xmlns:xlink="http://www.w3.org/1999/xlink">
<g id="graph0" class="graph" transform="scale(1 1) rotate(0) translate(4 104)">
<title>TagCloud</title>
<polygon fill="white" stroke="none" points="-4,4 -4,-104 253,-104 253,4 -4,4"/>
<!-- Node1 -->
<g id="node1" class="node"><title>Node1</title>
<polygon fill="#bfbfbf" stroke="black" points="84.5,-0.5 84.5,-19.5 143.5,-19.5 143.5,-0.5 84.5,-0.5"/>
<text text-anchor="middle" x="114" y="-7.5" font-family="Helvetica,sans-Serif" font-size="10.00">TagCloud</text>
</g>
<!-- Node2 -->
<g id="node2" class="node"><title>Node2</title>
<polygon fill="white" stroke="#bfbfbf" points="0,-69 0,-99 112,-99 112,-69 0,-69"/>
<text text-anchor="start" x="8" y="-87" font-family="Helvetica,sans-Serif" font-size="10.00">List&lt; Entry&lt; String,</text>
<text text-anchor="middle" x="56" y="-76" font-family="Helvetica,sans-Serif" font-size="10.00"> Integer &gt; &gt;</text>
</g>
<!-- Node2&#45;&gt;Node1 -->
<g id="edge1" class="edge"><title>Node2&#45;&gt;Node1</title>
<path fill="none" stroke="#9a32cd" stroke-dasharray="5,2" d="M70.6412,-60.0296C75.5722,-52.7774 81.2807,-44.8691 87,-38 92.4294,-31.4791 99.1794,-24.7291 104.572,-19.6093"/>
<polygon fill="#9a32cd" stroke="#9a32cd" points="67.477,-58.4683 64.8689,-68.7371 73.3115,-62.336 67.477,-58.4683"/>
<text text-anchor="middle" x="118.5" y="-41.5" font-family="Helvetica,sans-Serif" font-size="10.00"> myTagWords</text>
</g>
<!-- Node3 -->
<g id="node3" class="node"><title>Node3</title>
<polygon fill="white" stroke="#bfbfbf" points="130,-74.5 130,-93.5 214,-93.5 214,-74.5 130,-74.5"/>
<text text-anchor="middle" x="172" y="-81.5" font-family="Helvetica,sans-Serif" font-size="10.00">Set&lt; String &gt;</text>
</g>
<!-- Node3&#45;&gt;Node1 -->
<g id="edge2" class="edge"><title>Node3&#45;&gt;Node1</title>
<path fill="none" stroke="#9a32cd" stroke-dasharray="5,2" d="M165.416,-64.7656C161.726,-56.0889 156.541,-45.9086 150,-38 144.025,-30.7756 135.742,-24.3914 128.627,-19.6472"/>
<polygon fill="#9a32cd" stroke="#9a32cd" points="162.263,-66.3124 169.166,-74.3499 168.782,-63.762 162.263,-66.3124"/>
<text text-anchor="middle" x="203.5" y="-41.5" font-family="Helvetica,sans-Serif" font-size="10.00"> myCommonWords</text>
</g>
</g>
</svg>
