<?xml version="1.0" encoding="UTF-8" standalone="no"?>
<!DOCTYPE svg PUBLIC "-//W3C//DTD SVG 1.1//EN"
 "http://www.w3.org/Graphics/SVG/1.1/DTD/svg11.dtd">
<!-- Generated by graphviz version 2.36.0 (20140111.2315)
 -->
<!-- Title: TagCloud Pages: 1 -->
<svg width="126pt" height="108pt"
 viewBox="0.00 0.00 126.00 108.00" xmlns="http://www.w3.org/2000/svg" xmlns:xlink="http://www.w3.org/1999/xlink">
<g id="graph0" class="graph" transform="scale(1 1) rotate(0) translate(4 104)">
<title>TagCloud</title>
<polygon fill="white" stroke="none" points="-4,4 -4,-104 122,-104 122,4 -4,4"/>
<!-- Node1 -->
<g id="node1" class="node"><title>Node1</title>
<polygon fill="#bfbfbf" stroke="black" points="25.5,-0.5 25.5,-19.5 84.5,-19.5 84.5,-0.5 25.5,-0.5"/>
<text text-anchor="middle" x="55" y="-7.5" font-family="Helvetica,sans-Serif" font-size="10.00">TagCloud</text>
</g>
<!-- Node2 -->
<g id="node2" class="node"><title>Node2</title>
<polygon fill="white" stroke="#bfbfbf" points="-1,-69 -1,-99 111,-99 111,-69 -1,-69"/>
<text text-anchor="start" x="7" y="-87" font-family="Helvetica,sans-Serif" font-size="10.00">List&lt; Entry&lt; String,</text>
<text text-anchor="middle" x="55" y="-76" font-family="Helvetica,sans-Serif" font-size="10.00"> Integer &gt; &gt;</text>
</g>
<!-- Node2&#45;&gt;Node1 -->
<g id="edge1" class="edge"><title>Node2&#45;&gt;Node1</title>
<path fill="none" stroke="#9a32cd" stroke-dasharray="5,2" d="M55,-58.6883C55,-45.2526 55,-29.3805 55,-19.7589"/>
<polygon fill="#9a32cd" stroke="#9a32cd" points="51.5001,-58.7751 55,-68.7751 58.5001,-58.7752 51.5001,-58.7751"/>
<text text-anchor="middle" x="86.5" y="-41.5" font-family="Helvetica,sans-Serif" font-size="10.00"> myTagWords</text>
</g>
</g>
</svg>
