<?xml version="1.0" encoding="UTF-8" standalone="no"?>
<!DOCTYPE svg PUBLIC "-//W3C//DTD SVG 1.1//EN"
 "http://www.w3.org/Graphics/SVG/1.1/DTD/svg11.dtd">
<!-- Generated by graphviz version 2.36.0 (20140111.2315)
 -->
<!-- Title: HTMLPage.formatWord Pages: 1 -->
<svg width="296pt" height="66pt"
 viewBox="0.00 0.00 296.00 66.00" xmlns="http://www.w3.org/2000/svg" xmlns:xlink="http://www.w3.org/1999/xlink">
<g id="graph0" class="graph" transform="scale(1 1) rotate(0) translate(4 62)">
<title>HTMLPage.formatWord</title>
<polygon fill="white" stroke="none" points="-4,4 -4,-62 292,-62 292,4 -4,4"/>
<!-- Node1 -->
<g id="node1" class="node"><title>Node1</title>
<polygon fill="#bfbfbf" stroke="black" points="0.5,-19.5 0.5,-38.5 125.5,-38.5 125.5,-19.5 0.5,-19.5"/>
<text text-anchor="middle" x="63" y="-26.5" font-family="Helvetica,sans-Serif" font-size="10.00">HTMLPage.formatWord</text>
</g>
<!-- Node2 -->
<g id="node2" class="node"><title>Node2</title>
<g id="a_node2"><a xlink:href="../../dc/d6a/class_h_t_m_l_page.html#a7b8d7951c72516671a2daa2b51e6a6e0" target="_top" xlink:title="HTMLPage.formatWord">
<polygon fill="white" stroke="black" points="162.5,-38.5 162.5,-57.5 287.5,-57.5 287.5,-38.5 162.5,-38.5"/>
<text text-anchor="middle" x="225" y="-45.5" font-family="Helvetica,sans-Serif" font-size="10.00">HTMLPage.formatWord</text>
</a>
</g>
</g>
<!-- Node1&#45;&gt;Node2 -->
<g id="edge1" class="edge"><title>Node1&#45;&gt;Node2</title>
<path fill="none" stroke="midnightblue" d="M136.061,-37.5572C144.822,-38.5977 153.712,-39.6533 162.304,-40.6736"/>
<polygon fill="midnightblue" stroke="midnightblue" points="136.203,-34.0496 125.86,-36.3459 135.378,-41.0008 136.203,-34.0496"/>
</g>
<!-- Node3 -->
<g id="node3" class="node"><title>Node3</title>
<g id="a_node3"><a xlink:href="../../d0/d08/class_tag_cloud.html#a447b72c62bd5f03b5498cc3da1df4576" target="_top" xlink:title="TagCloud.toString">
<polygon fill="white" stroke="black" points="174.5,-0.5 174.5,-19.5 275.5,-19.5 275.5,-0.5 174.5,-0.5"/>
<text text-anchor="middle" x="225" y="-7.5" font-family="Helvetica,sans-Serif" font-size="10.00">TagCloud.toString</text>
</a>
</g>
</g>
<!-- Node1&#45;&gt;Node3 -->
<g id="edge2" class="edge"><title>Node1&#45;&gt;Node3</title>
<path fill="none" stroke="midnightblue" d="M136.156,-20.4315C149.1,-18.8944 162.32,-17.3245 174.444,-15.8847"/>
<polygon fill="midnightblue" stroke="midnightblue" points="135.378,-16.9992 125.86,-21.6541 136.203,-23.9504 135.378,-16.9992"/>
</g>
</g>
</svg>
