<?xml version="1.0" encoding="UTF-8" standalone="no"?>
<!DOCTYPE svg PUBLIC "-//W3C//DTD SVG 1.1//EN"
 "http://www.w3.org/Graphics/SVG/1.1/DTD/svg11.dtd">
<!-- Generated by graphviz version 2.36.0 (20140111.2315)
 -->
<!-- Title: TagCloud.main Pages: 1 -->
<svg width="686pt" height="104pt"
 viewBox="0.00 0.00 686.00 104.00" xmlns="http://www.w3.org/2000/svg" xmlns:xlink="http://www.w3.org/1999/xlink">
<g id="graph0" class="graph" transform="scale(1 1) rotate(0) translate(4 100)">
<title>TagCloud.main</title>
<polygon fill="white" stroke="none" points="-4,4 -4,-100 682,-100 682,4 -4,4"/>
<!-- Node1 -->
<g id="node1" class="node"><title>Node1</title>
<polygon fill="#bfbfbf" stroke="black" points="0,-19.5 0,-38.5 86,-38.5 86,-19.5 0,-19.5"/>
<text text-anchor="middle" x="43" y="-26.5" font-family="Helvetica,sans-Serif" font-size="10.00">TagCloud.main</text>
</g>
<!-- Node2 -->
<g id="node2" class="node"><title>Node2</title>
<g id="a_node2"><a xlink:href="../../d0/d08/class_tag_cloud.html#ad7b0db7f5bc5279337699023a56d2104" target="_top" xlink:title="TagCloud.makeCloud">
<polygon fill="white" stroke="black" points="122,-38.5 122,-57.5 238,-57.5 238,-38.5 122,-38.5"/>
<text text-anchor="middle" x="180" y="-45.5" font-family="Helvetica,sans-Serif" font-size="10.00">TagCloud.makeCloud</text>
</a>
</g>
</g>
<!-- Node1&#45;&gt;Node2 -->
<g id="edge1" class="edge"><title>Node1&#45;&gt;Node2</title>
<path fill="none" stroke="midnightblue" d="M86.3444,-34.9596C94.4589,-36.1016 103.139,-37.3233 111.813,-38.544"/>
<polygon fill="midnightblue" stroke="midnightblue" points="111.567,-42.0439 121.957,-39.9718 112.543,-35.1122 111.567,-42.0439"/>
</g>
<!-- Node8 -->
<g id="node8" class="node"><title>Node8</title>
<g id="a_node8"><a xlink:href="../../d0/d08/class_tag_cloud.html#a254f1e0269e4a6d0fb0c940416b0051a" target="_top" xlink:title="TagCloud.TagCloud">
<polygon fill="white" stroke="black" points="127.5,-0.5 127.5,-19.5 232.5,-19.5 232.5,-0.5 127.5,-0.5"/>
<text text-anchor="middle" x="180" y="-7.5" font-family="Helvetica,sans-Serif" font-size="10.00">TagCloud.TagCloud</text>
</a>
</g>
</g>
<!-- Node1&#45;&gt;Node8 -->
<g id="edge7" class="edge"><title>Node1&#45;&gt;Node8</title>
<path fill="none" stroke="midnightblue" d="M86.3444,-23.0404C96.1891,-21.6549 106.867,-20.1521 117.354,-18.676"/>
<polygon fill="midnightblue" stroke="midnightblue" points="117.904,-22.1333 127.318,-17.2737 116.928,-15.2017 117.904,-22.1333"/>
</g>
<!-- Node3 -->
<g id="node3" class="node"><title>Node3</title>
<g id="a_node3"><a xlink:href="../../d0/d08/class_tag_cloud.html#a8eb333599a395ab80ccb5c63f42abf83" target="_top" xlink:title="TagCloud.topWords">
<polygon fill="white" stroke="black" points="279.5,-76.5 279.5,-95.5 386.5,-95.5 386.5,-76.5 279.5,-76.5"/>
<text text-anchor="middle" x="333" y="-83.5" font-family="Helvetica,sans-Serif" font-size="10.00">TagCloud.topWords</text>
</a>
</g>
</g>
<!-- Node2&#45;&gt;Node3 -->
<g id="edge2" class="edge"><title>Node2&#45;&gt;Node3</title>
<path fill="none" stroke="midnightblue" d="M219.104,-57.589C238.94,-62.5809 263.384,-68.7324 284.448,-74.0334"/>
<polygon fill="midnightblue" stroke="midnightblue" points="283.618,-77.4336 294.17,-76.4799 285.327,-70.6452 283.618,-77.4336"/>
</g>
<!-- Node4 -->
<g id="node4" class="node"><title>Node4</title>
<g id="a_node4"><a xlink:href="../../d0/d08/class_tag_cloud.html#a92dd8ac719c16590b19cd9260341c7b9" target="_top" xlink:title="TagCloud.countWords">
<polygon fill="white" stroke="black" points="274,-38.5 274,-57.5 392,-57.5 392,-38.5 274,-38.5"/>
<text text-anchor="middle" x="333" y="-45.5" font-family="Helvetica,sans-Serif" font-size="10.00">TagCloud.countWords</text>
</a>
</g>
</g>
<!-- Node2&#45;&gt;Node4 -->
<g id="edge3" class="edge"><title>Node2&#45;&gt;Node4</title>
<path fill="none" stroke="midnightblue" d="M238.087,-48C246.49,-48 255.219,-48 263.819,-48"/>
<polygon fill="midnightblue" stroke="midnightblue" points="263.829,-51.5001 273.829,-48 263.829,-44.5001 263.829,-51.5001"/>
</g>
<!-- Node5 -->
<g id="node5" class="node"><title>Node5</title>
<g id="a_node5"><a xlink:href="../../d0/d08/class_tag_cloud.html#aaa5384ed881c97ad63401c469e4bfd29" target="_top" xlink:title="TagCloud.isTaggable">
<polygon fill="white" stroke="black" points="429,-38.5 429,-57.5 541,-57.5 541,-38.5 429,-38.5"/>
<text text-anchor="middle" x="485" y="-45.5" font-family="Helvetica,sans-Serif" font-size="10.00">TagCloud.isTaggable</text>
</a>
</g>
</g>
<!-- Node4&#45;&gt;Node5 -->
<g id="edge4" class="edge"><title>Node4&#45;&gt;Node5</title>
<path fill="none" stroke="midnightblue" d="M392.423,-48C401.056,-48 409.996,-48 418.756,-48"/>
<polygon fill="midnightblue" stroke="midnightblue" points="418.928,-51.5001 428.928,-48 418.927,-44.5001 418.928,-51.5001"/>
</g>
<!-- Node6 -->
<g id="node6" class="node"><title>Node6</title>
<g id="a_node6"><a xlink:href="../../d0/d08/class_tag_cloud.html#ab7e7beea52947a9ecc968190502d14b8" target="_top" xlink:title="TagCloud.readWords">
<polygon fill="white" stroke="black" points="428.5,-0.5 428.5,-19.5 541.5,-19.5 541.5,-0.5 428.5,-0.5"/>
<text text-anchor="middle" x="485" y="-7.5" font-family="Helvetica,sans-Serif" font-size="10.00">TagCloud.readWords</text>
</a>
</g>
</g>
<!-- Node4&#45;&gt;Node6 -->
<g id="edge5" class="edge"><title>Node4&#45;&gt;Node6</title>
<path fill="none" stroke="midnightblue" d="M371.851,-38.411C391.467,-33.4417 415.619,-27.3233 436.479,-22.0387"/>
<polygon fill="midnightblue" stroke="midnightblue" points="437.587,-25.3687 446.421,-19.5201 435.868,-18.5831 437.587,-25.3687"/>
</g>
<!-- Node7 -->
<g id="node7" class="node"><title>Node7</title>
<g id="a_node7"><a xlink:href="../../d0/d08/class_tag_cloud.html#aaa1e558b12e5ea013eed1517c027d5e6" target="_top" xlink:title="TagCloud.sanitize">
<polygon fill="white" stroke="black" points="578.5,-0.5 578.5,-19.5 677.5,-19.5 677.5,-0.5 578.5,-0.5"/>
<text text-anchor="middle" x="628" y="-7.5" font-family="Helvetica,sans-Serif" font-size="10.00">TagCloud.sanitize</text>
</a>
</g>
</g>
<!-- Node6&#45;&gt;Node7 -->
<g id="edge6" class="edge"><title>Node6&#45;&gt;Node7</title>
<path fill="none" stroke="midnightblue" d="M541.727,-10C550.358,-10 559.298,-10 567.998,-10"/>
<polygon fill="midnightblue" stroke="midnightblue" points="568.068,-13.5001 578.068,-10 568.068,-6.5001 568.068,-13.5001"/>
</g>
<!-- Node8&#45;&gt;Node6 -->
<g id="edge8" class="edge"><title>Node8&#45;&gt;Node6</title>
<path fill="none" stroke="midnightblue" d="M232.743,-10C283.98,-10 362.62,-10 418.254,-10"/>
<polygon fill="midnightblue" stroke="midnightblue" points="418.363,-13.5001 428.363,-10 418.363,-6.5001 418.363,-13.5001"/>
</g>
</g>
</svg>
