<?xml version="1.0" encoding="UTF-8" standalone="no"?>
<!DOCTYPE svg PUBLIC "-//W3C//DTD SVG 1.1//EN"
 "http://www.w3.org/Graphics/SVG/1.1/DTD/svg11.dtd">
<!-- Generated by graphviz version 2.36.0 (20140111.2315)
 -->
<!-- Title: TagCloud.sanitize Pages: 1 -->
<svg width="384pt" height="66pt"
 viewBox="0.00 0.00 384.00 66.00" xmlns="http://www.w3.org/2000/svg" xmlns:xlink="http://www.w3.org/1999/xlink">
<g id="graph0" class="graph" transform="scale(1 1) rotate(0) translate(4 62)">
<title>TagCloud.sanitize</title>
<polygon fill="white" stroke="none" points="-4,4 -4,-62 380,-62 380,4 -4,4"/>
<!-- Node1 -->
<g id="node1" class="node"><title>Node1</title>
<polygon fill="#bfbfbf" stroke="black" points="0.5,-19.5 0.5,-38.5 99.5,-38.5 99.5,-19.5 0.5,-19.5"/>
<text text-anchor="middle" x="50" y="-26.5" font-family="Helvetica,sans-Serif" font-size="10.00">TagCloud.sanitize</text>
</g>
<!-- Node2 -->
<g id="node2" class="node"><title>Node2</title>
<g id="a_node2"><a xlink:href="../../d0/d08/class_tag_cloud.html#a7022ddbe7f81801707f6114295b6bedb" target="_top" xlink:title="TagCloud.countWords">
<polygon fill="white" stroke="black" points="136,-38.5 136,-57.5 254,-57.5 254,-38.5 136,-38.5"/>
<text text-anchor="middle" x="195" y="-45.5" font-family="Helvetica,sans-Serif" font-size="10.00">TagCloud.countWords</text>
</a>
</g>
</g>
<!-- Node1&#45;&gt;Node2 -->
<g id="edge1" class="edge"><title>Node1&#45;&gt;Node2</title>
<path fill="none" stroke="midnightblue" d="M109.754,-36.8064C118.348,-37.9483 127.196,-39.1239 135.779,-40.2644"/>
<polygon fill="midnightblue" stroke="midnightblue" points="110.186,-33.3333 99.8125,-35.4856 109.264,-40.2723 110.186,-33.3333"/>
</g>
<!-- Node3 -->
<g id="node3" class="node"><title>Node3</title>
<g id="a_node3"><a xlink:href="../../d0/d08/class_tag_cloud.html#a808b2f1c03f27b26f9237cd0d3967d69" target="_top" xlink:title="TagCloud.isTaggable">
<polygon fill="white" stroke="black" points="139,-0.5 139,-19.5 251,-19.5 251,-0.5 139,-0.5"/>
<text text-anchor="middle" x="195" y="-7.5" font-family="Helvetica,sans-Serif" font-size="10.00">TagCloud.isTaggable</text>
</a>
</g>
</g>
<!-- Node1&#45;&gt;Node3 -->
<g id="edge2" class="edge"><title>Node1&#45;&gt;Node3</title>
<path fill="none" stroke="midnightblue" d="M109.926,-21.1707C119.386,-19.9137 129.15,-18.6165 138.525,-17.3708"/>
<polygon fill="midnightblue" stroke="midnightblue" points="109.264,-17.7277 99.8125,-22.5144 110.186,-24.6667 109.264,-17.7277"/>
</g>
<!-- Node4 -->
<g id="node4" class="node"><title>Node4</title>
<g id="a_node4"><a xlink:href="../../d0/d08/class_tag_cloud.html#a6bfe3684ec30436e41287b4e858ce461" target="_top" xlink:title="TagCloud.main">
<polygon fill="white" stroke="black" points="290,-0.5 290,-19.5 376,-19.5 376,-0.5 290,-0.5"/>
<text text-anchor="middle" x="333" y="-7.5" font-family="Helvetica,sans-Serif" font-size="10.00">TagCloud.main</text>
</a>
</g>
</g>
<!-- Node3&#45;&gt;Node4 -->
<g id="edge3" class="edge"><title>Node3&#45;&gt;Node4</title>
<path fill="none" stroke="midnightblue" d="M261.609,-10C271.15,-10 280.754,-10 289.668,-10"/>
<polygon fill="midnightblue" stroke="midnightblue" points="261.316,-6.5001 251.316,-10 261.316,-13.5001 261.316,-6.5001"/>
</g>
</g>
</svg>
