<?xml version="1.0" encoding="UTF-8" standalone="no"?>
<!DOCTYPE svg PUBLIC "-//W3C//DTD SVG 1.1//EN"
 "http://www.w3.org/Graphics/SVG/1.1/DTD/svg11.dtd">
<!-- Generated by graphviz version 2.36.0 (20140111.2315)
 -->
<!-- Title: TagCloud.readWords Pages: 1 -->
<svg width="398pt" height="66pt"
 viewBox="0.00 0.00 398.00 66.00" xmlns="http://www.w3.org/2000/svg" xmlns:xlink="http://www.w3.org/1999/xlink">
<g id="graph0" class="graph" transform="scale(1 1) rotate(0) translate(4 62)">
<title>TagCloud.readWords</title>
<polygon fill="white" stroke="none" points="-4,4 -4,-62 394,-62 394,4 -4,4"/>
<!-- Node1 -->
<g id="node1" class="node"><title>Node1</title>
<polygon fill="#bfbfbf" stroke="black" points="0.5,-19.5 0.5,-38.5 113.5,-38.5 113.5,-19.5 0.5,-19.5"/>
<text text-anchor="middle" x="57" y="-26.5" font-family="Helvetica,sans-Serif" font-size="10.00">TagCloud.readWords</text>
</g>
<!-- Node2 -->
<g id="node2" class="node"><title>Node2</title>
<g id="a_node2"><a xlink:href="../../d0/d08/class_tag_cloud.html#a7022ddbe7f81801707f6114295b6bedb" target="_top" xlink:title="TagCloud.countWords">
<polygon fill="white" stroke="black" points="150,-38.5 150,-57.5 268,-57.5 268,-38.5 150,-38.5"/>
<text text-anchor="middle" x="209" y="-45.5" font-family="Helvetica,sans-Serif" font-size="10.00">TagCloud.countWords</text>
</a>
</g>
</g>
<!-- Node1&#45;&gt;Node2 -->
<g id="edge1" class="edge"><title>Node1&#45;&gt;Node2</title>
<path fill="none" stroke="midnightblue" d="M123.895,-37.3467C132.536,-38.4413 141.341,-39.5566 149.842,-40.6333"/>
<polygon fill="midnightblue" stroke="midnightblue" points="124.215,-33.8594 113.854,-36.0749 123.335,-40.8039 124.215,-33.8594"/>
</g>
<!-- Node3 -->
<g id="node3" class="node"><title>Node3</title>
<g id="a_node3"><a xlink:href="../../d0/d08/class_tag_cloud.html#a808b2f1c03f27b26f9237cd0d3967d69" target="_top" xlink:title="TagCloud.isTaggable">
<polygon fill="white" stroke="black" points="153,-0.5 153,-19.5 265,-19.5 265,-0.5 153,-0.5"/>
<text text-anchor="middle" x="209" y="-7.5" font-family="Helvetica,sans-Serif" font-size="10.00">TagCloud.isTaggable</text>
</a>
</g>
</g>
<!-- Node1&#45;&gt;Node3 -->
<g id="edge2" class="edge"><title>Node1&#45;&gt;Node3</title>
<path fill="none" stroke="midnightblue" d="M123.775,-20.6685C133.393,-19.4503 143.216,-18.206 152.598,-17.0175"/>
<polygon fill="midnightblue" stroke="midnightblue" points="123.335,-17.1961 113.854,-21.9251 124.215,-24.1406 123.335,-17.1961"/>
</g>
<!-- Node4 -->
<g id="node4" class="node"><title>Node4</title>
<g id="a_node4"><a xlink:href="../../d0/d08/class_tag_cloud.html#a6bfe3684ec30436e41287b4e858ce461" target="_top" xlink:title="TagCloud.main">
<polygon fill="white" stroke="black" points="304,-0.5 304,-19.5 390,-19.5 390,-0.5 304,-0.5"/>
<text text-anchor="middle" x="347" y="-7.5" font-family="Helvetica,sans-Serif" font-size="10.00">TagCloud.main</text>
</a>
</g>
</g>
<!-- Node3&#45;&gt;Node4 -->
<g id="edge3" class="edge"><title>Node3&#45;&gt;Node4</title>
<path fill="none" stroke="midnightblue" d="M275.609,-10C285.15,-10 294.754,-10 303.668,-10"/>
<polygon fill="midnightblue" stroke="midnightblue" points="275.316,-6.5001 265.316,-10 275.316,-13.5001 275.316,-6.5001"/>
</g>
</g>
</svg>
