<?xml version="1.0" encoding="UTF-8" standalone="no"?>
<!DOCTYPE svg PUBLIC "-//W3C//DTD SVG 1.1//EN"
 "http://www.w3.org/Graphics/SVG/1.1/DTD/svg11.dtd">
<!-- Generated by graphviz version 2.36.0 (20140111.2315)
 -->
<!-- Title: TagCloud.toString Pages: 1 -->
<svg width="272pt" height="104pt"
 viewBox="0.00 0.00 272.00 104.00" xmlns="http://www.w3.org/2000/svg" xmlns:xlink="http://www.w3.org/1999/xlink">
<g id="graph0" class="graph" transform="scale(1 1) rotate(0) translate(4 100)">
<title>TagCloud.toString</title>
<polygon fill="white" stroke="none" points="-4,4 -4,-100 268,-100 268,4 -4,4"/>
<!-- Node1 -->
<g id="node1" class="node"><title>Node1</title>
<polygon fill="#bfbfbf" stroke="black" points="0.5,-38.5 0.5,-57.5 101.5,-57.5 101.5,-38.5 0.5,-38.5"/>
<text text-anchor="middle" x="51" y="-45.5" font-family="Helvetica,sans-Serif" font-size="10.00">TagCloud.toString</text>
</g>
<!-- Node2 -->
<g id="node2" class="node"><title>Node2</title>
<g id="a_node2"><a xlink:href="../../dc/d6a/class_h_t_m_l_page.html#ae85f703188015e785bb6df3c2394e383" target="_top" xlink:title="HTMLPage.endPage">
<polygon fill="white" stroke="black" points="146,-76.5 146,-95.5 256,-95.5 256,-76.5 146,-76.5"/>
<text text-anchor="middle" x="201" y="-83.5" font-family="Helvetica,sans-Serif" font-size="10.00">HTMLPage.endPage</text>
</a>
</g>
</g>
<!-- Node1&#45;&gt;Node2 -->
<g id="edge1" class="edge"><title>Node1&#45;&gt;Node2</title>
<path fill="none" stroke="midnightblue" d="M89.3466,-57.589C108.701,-62.5583 132.53,-68.6767 153.113,-73.9613"/>
<polygon fill="midnightblue" stroke="midnightblue" points="152.366,-77.383 162.922,-76.4799 154.107,-70.6029 152.366,-77.383"/>
</g>
<!-- Node3 -->
<g id="node3" class="node"><title>Node3</title>
<g id="a_node3"><a xlink:href="../../dc/d6a/class_h_t_m_l_page.html#ae269cd72393da07697b125065b718a2e" target="_top" xlink:title="HTMLPage.formatWord">
<polygon fill="white" stroke="black" points="138.5,-38.5 138.5,-57.5 263.5,-57.5 263.5,-38.5 138.5,-38.5"/>
<text text-anchor="middle" x="201" y="-45.5" font-family="Helvetica,sans-Serif" font-size="10.00">HTMLPage.formatWord</text>
</a>
</g>
</g>
<!-- Node1&#45;&gt;Node3 -->
<g id="edge2" class="edge"><title>Node1&#45;&gt;Node3</title>
<path fill="none" stroke="midnightblue" d="M101.694,-48C110.235,-48 119.263,-48 128.247,-48"/>
<polygon fill="midnightblue" stroke="midnightblue" points="128.343,-51.5001 138.343,-48 128.343,-44.5001 128.343,-51.5001"/>
</g>
<!-- Node4 -->
<g id="node4" class="node"><title>Node4</title>
<g id="a_node4"><a xlink:href="../../dc/d6a/class_h_t_m_l_page.html#afb64d9c71429d7dc78169ed47add5117" target="_top" xlink:title="HTMLPage.startPage">
<polygon fill="white" stroke="black" points="143.5,-0.5 143.5,-19.5 258.5,-19.5 258.5,-0.5 143.5,-0.5"/>
<text text-anchor="middle" x="201" y="-7.5" font-family="Helvetica,sans-Serif" font-size="10.00">HTMLPage.startPage</text>
</a>
</g>
</g>
<!-- Node1&#45;&gt;Node4 -->
<g id="edge3" class="edge"><title>Node1&#45;&gt;Node4</title>
<path fill="none" stroke="midnightblue" d="M89.3466,-38.411C108.701,-33.4417 132.53,-27.3233 153.113,-22.0387"/>
<polygon fill="midnightblue" stroke="midnightblue" points="154.107,-25.3971 162.922,-19.5201 152.366,-18.617 154.107,-25.3971"/>
</g>
</g>
</svg>
