<?xml version="1.0" encoding="UTF-8" standalone="no"?>
<!DOCTYPE svg PUBLIC "-//W3C//DTD SVG 1.1//EN"
 "http://www.w3.org/Graphics/SVG/1.1/DTD/svg11.dtd">
<!-- Generated by graphviz version 2.36.0 (20140111.2315)
 -->
<!-- Title: TagCloud.main Pages: 1 -->
<svg width="396pt" height="104pt"
 viewBox="0.00 0.00 396.00 104.00" xmlns="http://www.w3.org/2000/svg" xmlns:xlink="http://www.w3.org/1999/xlink">
<g id="graph0" class="graph" transform="scale(1 1) rotate(0) translate(4 100)">
<title>TagCloud.main</title>
<polygon fill="white" stroke="none" points="-4,4 -4,-100 392,-100 392,4 -4,4"/>
<!-- Node1 -->
<g id="node1" class="node"><title>Node1</title>
<polygon fill="#bfbfbf" stroke="black" points="0,-38.5 0,-57.5 86,-57.5 86,-38.5 0,-38.5"/>
<text text-anchor="middle" x="43" y="-45.5" font-family="Helvetica,sans-Serif" font-size="10.00">TagCloud.main</text>
</g>
<!-- Node2 -->
<g id="node2" class="node"><title>Node2</title>
<g id="a_node2"><a xlink:href="../../d0/d08/class_tag_cloud.html#a65b76f75ce9833a1aa4342ef735d3108" target="_top" xlink:title="TagCloud.countWords">
<polygon fill="white" stroke="black" points="122,-76.5 122,-95.5 240,-95.5 240,-76.5 122,-76.5"/>
<text text-anchor="middle" x="181" y="-83.5" font-family="Helvetica,sans-Serif" font-size="10.00">TagCloud.countWords</text>
</a>
</g>
</g>
<!-- Node1&#45;&gt;Node2 -->
<g id="edge1" class="edge"><title>Node1&#45;&gt;Node2</title>
<path fill="none" stroke="midnightblue" d="M78.3185,-57.589C95.7943,-62.4719 117.241,-68.4643 135.925,-73.685"/>
<polygon fill="midnightblue" stroke="midnightblue" points="135.119,-77.0938 145.692,-76.4141 137.003,-70.3521 135.119,-77.0938"/>
</g>
<!-- Node5 -->
<g id="node5" class="node"><title>Node5</title>
<g id="a_node5"><a xlink:href="../../d0/d08/class_tag_cloud.html#a254f1e0269e4a6d0fb0c940416b0051a" target="_top" xlink:title="TagCloud.TagCloud">
<polygon fill="white" stroke="black" points="128.5,-38.5 128.5,-57.5 233.5,-57.5 233.5,-38.5 128.5,-38.5"/>
<text text-anchor="middle" x="181" y="-45.5" font-family="Helvetica,sans-Serif" font-size="10.00">TagCloud.TagCloud</text>
</a>
</g>
</g>
<!-- Node1&#45;&gt;Node5 -->
<g id="edge4" class="edge"><title>Node1&#45;&gt;Node5</title>
<path fill="none" stroke="midnightblue" d="M86.2858,-48C96.3311,-48 107.254,-48 117.978,-48"/>
<polygon fill="midnightblue" stroke="midnightblue" points="118.163,-51.5001 128.163,-48 118.163,-44.5001 118.163,-51.5001"/>
</g>
<!-- Node6 -->
<g id="node6" class="node"><title>Node6</title>
<g id="a_node6"><a xlink:href="../../d0/d08/class_tag_cloud.html#afcfebb3e967e406ae22533984c3a828a" target="_top" xlink:title="TagCloud.topWords">
<polygon fill="white" stroke="black" points="127.5,-0.5 127.5,-19.5 234.5,-19.5 234.5,-0.5 127.5,-0.5"/>
<text text-anchor="middle" x="181" y="-7.5" font-family="Helvetica,sans-Serif" font-size="10.00">TagCloud.topWords</text>
</a>
</g>
</g>
<!-- Node1&#45;&gt;Node6 -->
<g id="edge6" class="edge"><title>Node1&#45;&gt;Node6</title>
<path fill="none" stroke="midnightblue" d="M78.3185,-38.411C95.7943,-33.5281 117.241,-27.5357 135.925,-22.315"/>
<polygon fill="midnightblue" stroke="midnightblue" points="137.003,-25.6479 145.692,-19.5859 135.119,-18.9062 137.003,-25.6479"/>
</g>
<!-- Node3 -->
<g id="node3" class="node"><title>Node3</title>
<g id="a_node3"><a xlink:href="../../d0/d08/class_tag_cloud.html#aaa5384ed881c97ad63401c469e4bfd29" target="_top" xlink:title="TagCloud.isTaggable">
<polygon fill="white" stroke="black" points="276,-76.5 276,-95.5 388,-95.5 388,-76.5 276,-76.5"/>
<text text-anchor="middle" x="332" y="-83.5" font-family="Helvetica,sans-Serif" font-size="10.00">TagCloud.isTaggable</text>
</a>
</g>
</g>
<!-- Node2&#45;&gt;Node3 -->
<g id="edge2" class="edge"><title>Node2&#45;&gt;Node3</title>
<path fill="none" stroke="midnightblue" d="M240.034,-86C248.399,-86 257.056,-86 265.553,-86"/>
<polygon fill="midnightblue" stroke="midnightblue" points="265.809,-89.5001 275.809,-86 265.809,-82.5001 265.809,-89.5001"/>
</g>
<!-- Node4 -->
<g id="node4" class="node"><title>Node4</title>
<g id="a_node4"><a xlink:href="../../d0/d08/class_tag_cloud.html#a5532b638b9d54e1b9868ed6c32d28a48" target="_top" xlink:title="TagCloud.sanitize">
<polygon fill="white" stroke="black" points="282.5,-38.5 282.5,-57.5 381.5,-57.5 381.5,-38.5 282.5,-38.5"/>
<text text-anchor="middle" x="332" y="-45.5" font-family="Helvetica,sans-Serif" font-size="10.00">TagCloud.sanitize</text>
</a>
</g>
</g>
<!-- Node2&#45;&gt;Node4 -->
<g id="edge3" class="edge"><title>Node2&#45;&gt;Node4</title>
<path fill="none" stroke="midnightblue" d="M219.599,-76.411C239.084,-71.4417 263.075,-65.3233 283.796,-60.0387"/>
<polygon fill="midnightblue" stroke="midnightblue" points="284.846,-63.3828 293.671,-57.5201 283.117,-56.5999 284.846,-63.3828"/>
</g>
<!-- Node5&#45;&gt;Node4 -->
<g id="edge5" class="edge"><title>Node5&#45;&gt;Node4</title>
<path fill="none" stroke="midnightblue" d="M233.695,-48C246.163,-48 259.575,-48 272.337,-48"/>
<polygon fill="midnightblue" stroke="midnightblue" points="272.402,-51.5001 282.402,-48 272.402,-44.5001 272.402,-51.5001"/>
</g>
</g>
</svg>
