<?xml version="1.0" encoding="UTF-8" standalone="no"?>
<!DOCTYPE svg PUBLIC "-//W3C//DTD SVG 1.1//EN"
 "http://www.w3.org/Graphics/SVG/1.1/DTD/svg11.dtd">
<!-- Generated by graphviz version 2.36.0 (20140111.2315)
 -->
<!-- Title: TagCloud.countWords Pages: 1 -->
<svg width="274pt" height="66pt"
 viewBox="0.00 0.00 274.00 66.00" xmlns="http://www.w3.org/2000/svg" xmlns:xlink="http://www.w3.org/1999/xlink">
<g id="graph0" class="graph" transform="scale(1 1) rotate(0) translate(4 62)">
<title>TagCloud.countWords</title>
<polygon fill="white" stroke="none" points="-4,4 -4,-62 270,-62 270,4 -4,4"/>
<!-- Node1 -->
<g id="node1" class="node"><title>Node1</title>
<polygon fill="#bfbfbf" stroke="black" points="0,-19.5 0,-38.5 118,-38.5 118,-19.5 0,-19.5"/>
<text text-anchor="middle" x="59" y="-26.5" font-family="Helvetica,sans-Serif" font-size="10.00">TagCloud.countWords</text>
</g>
<!-- Node2 -->
<g id="node2" class="node"><title>Node2</title>
<g id="a_node2"><a xlink:href="../../d0/d08/class_tag_cloud.html#aaa5384ed881c97ad63401c469e4bfd29" target="_top" xlink:title="TagCloud.isTaggable">
<polygon fill="white" stroke="black" points="154,-38.5 154,-57.5 266,-57.5 266,-38.5 154,-38.5"/>
<text text-anchor="middle" x="210" y="-45.5" font-family="Helvetica,sans-Serif" font-size="10.00">TagCloud.isTaggable</text>
</a>
</g>
</g>
<!-- Node1&#45;&gt;Node2 -->
<g id="edge1" class="edge"><title>Node1&#45;&gt;Node2</title>
<path fill="none" stroke="midnightblue" d="M118.034,-36.4003C126.491,-37.4787 135.246,-38.5952 143.834,-39.6902"/>
<polygon fill="midnightblue" stroke="midnightblue" points="143.447,-43.1691 153.809,-40.9622 144.332,-36.2253 143.447,-43.1691"/>
</g>
<!-- Node3 -->
<g id="node3" class="node"><title>Node3</title>
<g id="a_node3"><a xlink:href="../../d0/d08/class_tag_cloud.html#a5532b638b9d54e1b9868ed6c32d28a48" target="_top" xlink:title="TagCloud.sanitize">
<polygon fill="white" stroke="black" points="160.5,-0.5 160.5,-19.5 259.5,-19.5 259.5,-0.5 160.5,-0.5"/>
<text text-anchor="middle" x="210" y="-7.5" font-family="Helvetica,sans-Serif" font-size="10.00">TagCloud.sanitize</text>
</a>
</g>
</g>
<!-- Node1&#45;&gt;Node3 -->
<g id="edge2" class="edge"><title>Node1&#45;&gt;Node3</title>
<path fill="none" stroke="midnightblue" d="M118.034,-21.5997C128.561,-20.2573 139.549,-18.8561 150.101,-17.5106"/>
<polygon fill="midnightblue" stroke="midnightblue" points="150.577,-20.9784 160.054,-16.2415 149.691,-14.0346 150.577,-20.9784"/>
</g>
</g>
</svg>
