<?xml version="1.0" encoding="UTF-8" standalone="no"?>
<!DOCTYPE svg PUBLIC "-//W3C//DTD SVG 1.1//EN"
 "http://www.w3.org/Graphics/SVG/1.1/DTD/svg11.dtd">
<!-- Generated by graphviz version 2.36.0 (20140111.2315)
 -->
<!-- Title: TagCloud.makeCloud Pages: 1 -->
<svg width="564pt" height="85pt"
 viewBox="0.00 0.00 564.00 85.00" xmlns="http://www.w3.org/2000/svg" xmlns:xlink="http://www.w3.org/1999/xlink">
<g id="graph0" class="graph" transform="scale(1 1) rotate(0) translate(4 81)">
<title>TagCloud.makeCloud</title>
<polygon fill="white" stroke="none" points="-4,4 -4,-81 560,-81 560,4 -4,4"/>
<!-- Node1 -->
<g id="node1" class="node"><title>Node1</title>
<polygon fill="#bfbfbf" stroke="black" points="0,-19.5 0,-38.5 116,-38.5 116,-19.5 0,-19.5"/>
<text text-anchor="middle" x="58" y="-26.5" font-family="Helvetica,sans-Serif" font-size="10.00">TagCloud.makeCloud</text>
</g>
<!-- Node2 -->
<g id="node2" class="node"><title>Node2</title>
<g id="a_node2"><a xlink:href="../../d0/d08/class_tag_cloud.html#a92dd8ac719c16590b19cd9260341c7b9" target="_top" xlink:title="TagCloud.countWords">
<polygon fill="white" stroke="black" points="152,-38.5 152,-57.5 270,-57.5 270,-38.5 152,-38.5"/>
<text text-anchor="middle" x="211" y="-45.5" font-family="Helvetica,sans-Serif" font-size="10.00">TagCloud.countWords</text>
</a>
</g>
</g>
<!-- Node1&#45;&gt;Node2 -->
<g id="edge1" class="edge"><title>Node1&#45;&gt;Node2</title>
<path fill="none" stroke="midnightblue" d="M116.087,-36.1831C124.49,-37.2405 133.219,-38.3388 141.819,-39.4209"/>
<polygon fill="midnightblue" stroke="midnightblue" points="141.47,-42.9045 151.829,-40.6804 142.344,-35.9593 141.47,-42.9045"/>
</g>
<!-- Node6 -->
<g id="node6" class="node"><title>Node6</title>
<g id="a_node6"><a xlink:href="../../d0/d08/class_tag_cloud.html#a8eb333599a395ab80ccb5c63f42abf83" target="_top" xlink:title="TagCloud.topWords">
<polygon fill="white" stroke="black" points="157.5,-0.5 157.5,-19.5 264.5,-19.5 264.5,-0.5 157.5,-0.5"/>
<text text-anchor="middle" x="211" y="-7.5" font-family="Helvetica,sans-Serif" font-size="10.00">TagCloud.topWords</text>
</a>
</g>
</g>
<!-- Node1&#45;&gt;Node6 -->
<g id="edge5" class="edge"><title>Node1&#45;&gt;Node6</title>
<path fill="none" stroke="midnightblue" d="M116.087,-21.8169C126.234,-20.5401 136.854,-19.2038 147.151,-17.9082"/>
<polygon fill="midnightblue" stroke="midnightblue" points="147.825,-21.351 157.31,-16.6299 146.951,-14.4058 147.825,-21.351"/>
</g>
<!-- Node3 -->
<g id="node3" class="node"><title>Node3</title>
<g id="a_node3"><a xlink:href="../../d0/d08/class_tag_cloud.html#aaa5384ed881c97ad63401c469e4bfd29" target="_top" xlink:title="TagCloud.isTaggable">
<polygon fill="white" stroke="black" points="307,-57.5 307,-76.5 419,-76.5 419,-57.5 307,-57.5"/>
<text text-anchor="middle" x="363" y="-64.5" font-family="Helvetica,sans-Serif" font-size="10.00">TagCloud.isTaggable</text>
</a>
</g>
</g>
<!-- Node2&#45;&gt;Node3 -->
<g id="edge2" class="edge"><title>Node2&#45;&gt;Node3</title>
<path fill="none" stroke="midnightblue" d="M270.423,-55.4003C279.056,-56.4937 287.996,-57.6262 296.756,-58.7358"/>
<polygon fill="midnightblue" stroke="midnightblue" points="296.567,-62.2397 306.928,-60.0242 297.447,-55.2952 296.567,-62.2397"/>
</g>
<!-- Node4 -->
<g id="node4" class="node"><title>Node4</title>
<g id="a_node4"><a xlink:href="../../d0/d08/class_tag_cloud.html#ab7e7beea52947a9ecc968190502d14b8" target="_top" xlink:title="TagCloud.readWords">
<polygon fill="white" stroke="black" points="306.5,-19.5 306.5,-38.5 419.5,-38.5 419.5,-19.5 306.5,-19.5"/>
<text text-anchor="middle" x="363" y="-26.5" font-family="Helvetica,sans-Serif" font-size="10.00">TagCloud.readWords</text>
</a>
</g>
</g>
<!-- Node2&#45;&gt;Node4 -->
<g id="edge3" class="edge"><title>Node2&#45;&gt;Node4</title>
<path fill="none" stroke="midnightblue" d="M270.423,-40.5997C278.937,-39.5213 287.751,-38.4048 296.396,-37.3098"/>
<polygon fill="midnightblue" stroke="midnightblue" points="296.958,-40.7667 306.439,-36.0378 296.078,-33.8222 296.958,-40.7667"/>
</g>
<!-- Node5 -->
<g id="node5" class="node"><title>Node5</title>
<g id="a_node5"><a xlink:href="../../d0/d08/class_tag_cloud.html#aaa1e558b12e5ea013eed1517c027d5e6" target="_top" xlink:title="TagCloud.sanitize">
<polygon fill="white" stroke="black" points="456.5,-19.5 456.5,-38.5 555.5,-38.5 555.5,-19.5 456.5,-19.5"/>
<text text-anchor="middle" x="506" y="-26.5" font-family="Helvetica,sans-Serif" font-size="10.00">TagCloud.sanitize</text>
</a>
</g>
</g>
<!-- Node4&#45;&gt;Node5 -->
<g id="edge4" class="edge"><title>Node4&#45;&gt;Node5</title>
<path fill="none" stroke="midnightblue" d="M419.727,-29C428.358,-29 437.298,-29 445.998,-29"/>
<polygon fill="midnightblue" stroke="midnightblue" points="446.068,-32.5001 456.068,-29 446.068,-25.5001 446.068,-32.5001"/>
</g>
</g>
</svg>
