<?xml version="1.0" encoding="UTF-8" standalone="no"?>
<!DOCTYPE svg PUBLIC "-//W3C//DTD SVG 1.1//EN"
 "http://www.w3.org/Graphics/SVG/1.1/DTD/svg11.dtd">
<!-- Generated by graphviz version 2.36.0 (20140111.2315)
 -->
<!-- Title: TagCloud.readWords Pages: 1 -->
<svg width="550pt" height="66pt"
 viewBox="0.00 0.00 550.00 66.00" xmlns="http://www.w3.org/2000/svg" xmlns:xlink="http://www.w3.org/1999/xlink">
<g id="graph0" class="graph" transform="scale(1 1) rotate(0) translate(4 62)">
<title>TagCloud.readWords</title>
<polygon fill="white" stroke="none" points="-4,4 -4,-62 546,-62 546,4 -4,4"/>
<!-- Node1 -->
<g id="node1" class="node"><title>Node1</title>
<polygon fill="#bfbfbf" stroke="black" points="0.5,-19.5 0.5,-38.5 113.5,-38.5 113.5,-19.5 0.5,-19.5"/>
<text text-anchor="middle" x="57" y="-26.5" font-family="Helvetica,sans-Serif" font-size="10.00">TagCloud.readWords</text>
</g>
<!-- Node2 -->
<g id="node2" class="node"><title>Node2</title>
<g id="a_node2"><a xlink:href="../../d0/d08/class_tag_cloud.html#a92dd8ac719c16590b19cd9260341c7b9" target="_top" xlink:title="TagCloud.countWords">
<polygon fill="white" stroke="black" points="150,-38.5 150,-57.5 268,-57.5 268,-38.5 150,-38.5"/>
<text text-anchor="middle" x="209" y="-45.5" font-family="Helvetica,sans-Serif" font-size="10.00">TagCloud.countWords</text>
</a>
</g>
</g>
<!-- Node1&#45;&gt;Node2 -->
<g id="edge1" class="edge"><title>Node1&#45;&gt;Node2</title>
<path fill="none" stroke="midnightblue" d="M123.895,-37.3467C132.536,-38.4413 141.341,-39.5566 149.842,-40.6333"/>
<polygon fill="midnightblue" stroke="midnightblue" points="124.215,-33.8594 113.854,-36.0749 123.335,-40.8039 124.215,-33.8594"/>
</g>
<!-- Node5 -->
<g id="node5" class="node"><title>Node5</title>
<g id="a_node5"><a xlink:href="../../d0/d08/class_tag_cloud.html#a254f1e0269e4a6d0fb0c940416b0051a" target="_top" xlink:title="TagCloud.TagCloud">
<polygon fill="white" stroke="black" points="309.5,-0.5 309.5,-19.5 414.5,-19.5 414.5,-0.5 309.5,-0.5"/>
<text text-anchor="middle" x="362" y="-7.5" font-family="Helvetica,sans-Serif" font-size="10.00">TagCloud.TagCloud</text>
</a>
</g>
</g>
<!-- Node1&#45;&gt;Node5 -->
<g id="edge4" class="edge"><title>Node1&#45;&gt;Node5</title>
<path fill="none" stroke="midnightblue" d="M123.688,-24.881C179.347,-21.3908 258.063,-16.4548 309.316,-13.2409"/>
<polygon fill="midnightblue" stroke="midnightblue" points="123.336,-21.396 113.575,-25.5151 123.774,-28.3823 123.336,-21.396"/>
</g>
<!-- Node3 -->
<g id="node3" class="node"><title>Node3</title>
<g id="a_node3"><a xlink:href="../../d0/d08/class_tag_cloud.html#ad7b0db7f5bc5279337699023a56d2104" target="_top" xlink:title="TagCloud.makeCloud">
<polygon fill="white" stroke="black" points="304,-38.5 304,-57.5 420,-57.5 420,-38.5 304,-38.5"/>
<text text-anchor="middle" x="362" y="-45.5" font-family="Helvetica,sans-Serif" font-size="10.00">TagCloud.makeCloud</text>
</a>
</g>
</g>
<!-- Node2&#45;&gt;Node3 -->
<g id="edge2" class="edge"><title>Node2&#45;&gt;Node3</title>
<path fill="none" stroke="midnightblue" d="M278.571,-48C286.995,-48 295.536,-48 303.769,-48"/>
<polygon fill="midnightblue" stroke="midnightblue" points="278.381,-44.5001 268.381,-48 278.381,-51.5001 278.381,-44.5001"/>
</g>
<!-- Node4 -->
<g id="node4" class="node"><title>Node4</title>
<g id="a_node4"><a xlink:href="../../d0/d08/class_tag_cloud.html#a6bfe3684ec30436e41287b4e858ce461" target="_top" xlink:title="TagCloud.main">
<polygon fill="white" stroke="black" points="456,-19.5 456,-38.5 542,-38.5 542,-19.5 456,-19.5"/>
<text text-anchor="middle" x="499" y="-26.5" font-family="Helvetica,sans-Serif" font-size="10.00">TagCloud.main</text>
</a>
</g>
</g>
<!-- Node3&#45;&gt;Node4 -->
<g id="edge3" class="edge"><title>Node3&#45;&gt;Node4</title>
<path fill="none" stroke="midnightblue" d="M430.387,-38.5159C439.051,-37.2966 447.717,-36.0769 455.814,-34.9372"/>
<polygon fill="midnightblue" stroke="midnightblue" points="429.667,-35.0827 420.252,-39.9423 430.642,-42.0144 429.667,-35.0827"/>
</g>
<!-- Node5&#45;&gt;Node4 -->
<g id="edge5" class="edge"><title>Node5&#45;&gt;Node4</title>
<path fill="none" stroke="midnightblue" d="M424.764,-18.6928C435.243,-20.1675 445.907,-21.6683 455.736,-23.0518"/>
<polygon fill="midnightblue" stroke="midnightblue" points="425.199,-15.2195 414.808,-17.2916 424.223,-22.1512 425.199,-15.2195"/>
</g>
</g>
</svg>
