<?xml version="1.0" encoding="UTF-8" standalone="no"?>
<!DOCTYPE svg PUBLIC "-//W3C//DTD SVG 1.1//EN"
 "http://www.w3.org/Graphics/SVG/1.1/DTD/svg11.dtd">
<!-- Generated by graphviz version 2.36.0 (20140111.2315)
 -->
<!-- Title: TagCloud.topWords Pages: 1 -->
<svg width="390pt" height="28pt"
 viewBox="0.00 0.00 390.00 28.00" xmlns="http://www.w3.org/2000/svg" xmlns:xlink="http://www.w3.org/1999/xlink">
<g id="graph0" class="graph" transform="scale(1 1) rotate(0) translate(4 24)">
<title>TagCloud.topWords</title>
<polygon fill="white" stroke="none" points="-4,4 -4,-24 386,-24 386,4 -4,4"/>
<!-- Node1 -->
<g id="node1" class="node"><title>Node1</title>
<polygon fill="#bfbfbf" stroke="black" points="0.5,-0.5 0.5,-19.5 107.5,-19.5 107.5,-0.5 0.5,-0.5"/>
<text text-anchor="middle" x="54" y="-7.5" font-family="Helvetica,sans-Serif" font-size="10.00">TagCloud.topWords</text>
</g>
<!-- Node2 -->
<g id="node2" class="node"><title>Node2</title>
<g id="a_node2"><a xlink:href="../../d0/d08/class_tag_cloud.html#ad7b0db7f5bc5279337699023a56d2104" target="_top" xlink:title="TagCloud.makeCloud">
<polygon fill="white" stroke="black" points="144,-0.5 144,-19.5 260,-19.5 260,-0.5 144,-0.5"/>
<text text-anchor="middle" x="202" y="-7.5" font-family="Helvetica,sans-Serif" font-size="10.00">TagCloud.makeCloud</text>
</a>
</g>
</g>
<!-- Node1&#45;&gt;Node2 -->
<g id="edge1" class="edge"><title>Node1&#45;&gt;Node2</title>
<path fill="none" stroke="midnightblue" d="M117.784,-10C126.469,-10 135.351,-10 143.925,-10"/>
<polygon fill="midnightblue" stroke="midnightblue" points="117.709,-6.5001 107.709,-10 117.709,-13.5001 117.709,-6.5001"/>
</g>
<!-- Node3 -->
<g id="node3" class="node"><title>Node3</title>
<g id="a_node3"><a xlink:href="../../d0/d08/class_tag_cloud.html#a6bfe3684ec30436e41287b4e858ce461" target="_top" xlink:title="TagCloud.main">
<polygon fill="white" stroke="black" points="296,-0.5 296,-19.5 382,-19.5 382,-0.5 296,-0.5"/>
<text text-anchor="middle" x="339" y="-7.5" font-family="Helvetica,sans-Serif" font-size="10.00">TagCloud.main</text>
</a>
</g>
</g>
<!-- Node2&#45;&gt;Node3 -->
<g id="edge2" class="edge"><title>Node2&#45;&gt;Node3</title>
<path fill="none" stroke="midnightblue" d="M270.387,-10C279.051,-10 287.717,-10 295.814,-10"/>
<polygon fill="midnightblue" stroke="midnightblue" points="270.252,-6.5001 260.252,-10 270.252,-13.5001 270.252,-6.5001"/>
</g>
</g>
</svg>
