<?xml version="1.0" encoding="UTF-8" standalone="no"?>
<!DOCTYPE svg PUBLIC "-//W3C//DTD SVG 1.1//EN"
 "http://www.w3.org/Graphics/SVG/1.1/DTD/svg11.dtd">
<!-- Generated by graphviz version 2.36.0 (20140111.2315)
 -->
<!-- Title: TagCloud.main Pages: 1 -->
<svg width="392pt" height="123pt"
 viewBox="0.00 0.00 392.00 123.00" xmlns="http://www.w3.org/2000/svg" xmlns:xlink="http://www.w3.org/1999/xlink">
<g id="graph0" class="graph" transform="scale(1 1) rotate(0) translate(4 119)">
<title>TagCloud.main</title>
<polygon fill="white" stroke="none" points="-4,4 -4,-119 388,-119 388,4 -4,4"/>
<!-- Node1 -->
<g id="node1" class="node"><title>Node1</title>
<polygon fill="#bfbfbf" stroke="black" points="0,-38.5 0,-57.5 86,-57.5 86,-38.5 0,-38.5"/>
<text text-anchor="middle" x="43" y="-45.5" font-family="Helvetica,sans-Serif" font-size="10.00">TagCloud.main</text>
</g>
<!-- Node2 -->
<g id="node2" class="node"><title>Node2</title>
<g id="a_node2"><a xlink:href="../../d0/d08/class_tag_cloud.html#a808b2f1c03f27b26f9237cd0d3967d69" target="_top" xlink:title="TagCloud.isTaggable">
<polygon fill="white" stroke="black" points="122,-76.5 122,-95.5 234,-95.5 234,-76.5 122,-76.5"/>
<text text-anchor="middle" x="178" y="-83.5" font-family="Helvetica,sans-Serif" font-size="10.00">TagCloud.isTaggable</text>
</a>
</g>
</g>
<!-- Node1&#45;&gt;Node2 -->
<g id="edge1" class="edge"><title>Node1&#45;&gt;Node2</title>
<path fill="none" stroke="midnightblue" d="M77.5615,-57.589C94.573,-62.4494 115.432,-68.4091 133.645,-73.6127"/>
<polygon fill="midnightblue" stroke="midnightblue" points="132.872,-77.0321 143.449,-76.4141 134.796,-70.3014 132.872,-77.0321"/>
</g>
<!-- Node5 -->
<g id="node5" class="node"><title>Node5</title>
<g id="a_node5"><a xlink:href="../../d0/d08/class_tag_cloud.html#abe12155576706a59062bc03a3c21b88b" target="_top" xlink:title="TagCloud.TagCloud">
<polygon fill="white" stroke="black" points="125.5,-38.5 125.5,-57.5 230.5,-57.5 230.5,-38.5 125.5,-38.5"/>
<text text-anchor="middle" x="178" y="-45.5" font-family="Helvetica,sans-Serif" font-size="10.00">TagCloud.TagCloud</text>
</a>
</g>
</g>
<!-- Node1&#45;&gt;Node5 -->
<g id="edge4" class="edge"><title>Node1&#45;&gt;Node5</title>
<path fill="none" stroke="midnightblue" d="M86.082,-48C95.3452,-48 105.342,-48 115.201,-48"/>
<polygon fill="midnightblue" stroke="midnightblue" points="115.388,-51.5001 125.388,-48 115.388,-44.5001 115.388,-51.5001"/>
</g>
<!-- Node6 -->
<g id="node6" class="node"><title>Node6</title>
<g id="a_node6"><a xlink:href="../../d0/d08/class_tag_cloud.html#a8baeedba0026b72451b5cd1f6e656317" target="_top" xlink:title="TagCloud.topWords">
<polygon fill="white" stroke="black" points="124.5,-0.5 124.5,-19.5 231.5,-19.5 231.5,-0.5 124.5,-0.5"/>
<text text-anchor="middle" x="178" y="-7.5" font-family="Helvetica,sans-Serif" font-size="10.00">TagCloud.topWords</text>
</a>
</g>
</g>
<!-- Node1&#45;&gt;Node6 -->
<g id="edge5" class="edge"><title>Node1&#45;&gt;Node6</title>
<path fill="none" stroke="midnightblue" d="M77.5615,-38.411C94.573,-33.5506 115.432,-27.5909 133.645,-22.3873"/>
<polygon fill="midnightblue" stroke="midnightblue" points="134.796,-25.6986 143.449,-19.5859 132.872,-18.9679 134.796,-25.6986"/>
</g>
<!-- Node3 -->
<g id="node3" class="node"><title>Node3</title>
<g id="a_node3"><a xlink:href="../../d0/d08/class_tag_cloud.html#a5d9a141b96397d3abc031ecdb03239cd" target="_top" xlink:title="TagCloud.readWords">
<polygon fill="white" stroke="black" points="270.5,-95.5 270.5,-114.5 383.5,-114.5 383.5,-95.5 270.5,-95.5"/>
<text text-anchor="middle" x="327" y="-102.5" font-family="Helvetica,sans-Serif" font-size="10.00">TagCloud.readWords</text>
</a>
</g>
</g>
<!-- Node2&#45;&gt;Node3 -->
<g id="edge2" class="edge"><title>Node2&#45;&gt;Node3</title>
<path fill="none" stroke="midnightblue" d="M234.156,-93.129C242.588,-94.2188 251.364,-95.3531 260,-96.4694"/>
<polygon fill="midnightblue" stroke="midnightblue" points="259.679,-99.957 270.046,-97.7678 260.577,-93.0147 259.679,-99.957"/>
</g>
<!-- Node4 -->
<g id="node4" class="node"><title>Node4</title>
<g id="a_node4"><a xlink:href="../../d0/d08/class_tag_cloud.html#aaa1e558b12e5ea013eed1517c027d5e6" target="_top" xlink:title="TagCloud.sanitize">
<polygon fill="white" stroke="black" points="277.5,-57.5 277.5,-76.5 376.5,-76.5 376.5,-57.5 277.5,-57.5"/>
<text text-anchor="middle" x="327" y="-64.5" font-family="Helvetica,sans-Serif" font-size="10.00">TagCloud.sanitize</text>
</a>
</g>
</g>
<!-- Node2&#45;&gt;Node4 -->
<g id="edge3" class="edge"><title>Node2&#45;&gt;Node4</title>
<path fill="none" stroke="midnightblue" d="M234.156,-78.871C244.898,-77.4826 256.199,-76.0219 267.058,-74.6183"/>
<polygon fill="midnightblue" stroke="midnightblue" points="267.833,-78.0474 277.302,-73.2944 266.935,-71.1052 267.833,-78.0474"/>
</g>
</g>
</svg>
