<?xml version="1.0" encoding="UTF-8" standalone="no"?>
<!DOCTYPE svg PUBLIC "-//W3C//DTD SVG 1.1//EN"
 "http://www.w3.org/Graphics/SVG/1.1/DTD/svg11.dtd">
<!-- Generated by graphviz version 2.36.0 (20140111.2315)
 -->
<!-- Title: TagCloud.countWords Pages: 1 -->
<svg width="400pt" height="28pt"
 viewBox="0.00 0.00 400.00 28.00" xmlns="http://www.w3.org/2000/svg" xmlns:xlink="http://www.w3.org/1999/xlink">
<g id="graph0" class="graph" transform="scale(1 1) rotate(0) translate(4 24)">
<title>TagCloud.countWords</title>
<polygon fill="white" stroke="none" points="-4,4 -4,-24 396,-24 396,4 -4,4"/>
<!-- Node1 -->
<g id="node1" class="node"><title>Node1</title>
<polygon fill="#bfbfbf" stroke="black" points="0,-0.5 0,-19.5 118,-19.5 118,-0.5 0,-0.5"/>
<text text-anchor="middle" x="59" y="-7.5" font-family="Helvetica,sans-Serif" font-size="10.00">TagCloud.countWords</text>
</g>
<!-- Node2 -->
<g id="node2" class="node"><title>Node2</title>
<g id="a_node2"><a xlink:href="../../d0/d08/class_tag_cloud.html#ad7b0db7f5bc5279337699023a56d2104" target="_top" xlink:title="TagCloud.makeCloud">
<polygon fill="white" stroke="black" points="154,-0.5 154,-19.5 270,-19.5 270,-0.5 154,-0.5"/>
<text text-anchor="middle" x="212" y="-7.5" font-family="Helvetica,sans-Serif" font-size="10.00">TagCloud.makeCloud</text>
</a>
</g>
</g>
<!-- Node1&#45;&gt;Node2 -->
<g id="edge1" class="edge"><title>Node1&#45;&gt;Node2</title>
<path fill="none" stroke="midnightblue" d="M128.571,-10C136.995,-10 145.536,-10 153.769,-10"/>
<polygon fill="midnightblue" stroke="midnightblue" points="128.381,-6.5001 118.381,-10 128.381,-13.5001 128.381,-6.5001"/>
</g>
<!-- Node3 -->
<g id="node3" class="node"><title>Node3</title>
<g id="a_node3"><a xlink:href="../../d0/d08/class_tag_cloud.html#a6bfe3684ec30436e41287b4e858ce461" target="_top" xlink:title="TagCloud.main">
<polygon fill="white" stroke="black" points="306,-0.5 306,-19.5 392,-19.5 392,-0.5 306,-0.5"/>
<text text-anchor="middle" x="349" y="-7.5" font-family="Helvetica,sans-Serif" font-size="10.00">TagCloud.main</text>
</a>
</g>
</g>
<!-- Node2&#45;&gt;Node3 -->
<g id="edge2" class="edge"><title>Node2&#45;&gt;Node3</title>
<path fill="none" stroke="midnightblue" d="M280.387,-10C289.051,-10 297.717,-10 305.814,-10"/>
<polygon fill="midnightblue" stroke="midnightblue" points="280.252,-6.5001 270.252,-10 280.252,-13.5001 280.252,-6.5001"/>
</g>
</g>
</svg>
