<?xml version="1.0" encoding="UTF-8" standalone="no"?>
<!DOCTYPE svg PUBLIC "-//W3C//DTD SVG 1.1//EN"
 "http://www.w3.org/Graphics/SVG/1.1/DTD/svg11.dtd">
<!-- Generated by graphviz version 2.36.0 (20140111.2315)
 -->
<!-- Title: TagCloud.isTaggable Pages: 1 -->
<svg width="396pt" height="28pt"
 viewBox="0.00 0.00 396.00 28.00" xmlns="http://www.w3.org/2000/svg" xmlns:xlink="http://www.w3.org/1999/xlink">
<g id="graph0" class="graph" transform="scale(1 1) rotate(0) translate(4 24)">
<title>TagCloud.isTaggable</title>
<polygon fill="white" stroke="none" points="-4,4 -4,-24 392,-24 392,4 -4,4"/>
<!-- Node1 -->
<g id="node1" class="node"><title>Node1</title>
<polygon fill="#bfbfbf" stroke="black" points="0,-0.5 0,-19.5 112,-19.5 112,-0.5 0,-0.5"/>
<text text-anchor="middle" x="56" y="-7.5" font-family="Helvetica,sans-Serif" font-size="10.00">TagCloud.isTaggable</text>
</g>
<!-- Node2 -->
<g id="node2" class="node"><title>Node2</title>
<g id="a_node2"><a xlink:href="../../d0/d08/class_tag_cloud.html#a65b76f75ce9833a1aa4342ef735d3108" target="_top" xlink:title="TagCloud.countWords">
<polygon fill="white" stroke="black" points="148,-0.5 148,-19.5 266,-19.5 266,-0.5 148,-0.5"/>
<text text-anchor="middle" x="207" y="-7.5" font-family="Helvetica,sans-Serif" font-size="10.00">TagCloud.countWords</text>
</a>
</g>
</g>
<!-- Node1&#45;&gt;Node2 -->
<g id="edge1" class="edge"><title>Node1&#45;&gt;Node2</title>
<path fill="none" stroke="midnightblue" d="M122.337,-10C130.854,-10 139.533,-10 147.92,-10"/>
<polygon fill="midnightblue" stroke="midnightblue" points="122.059,-6.5001 112.059,-10 122.059,-13.5001 122.059,-6.5001"/>
</g>
<!-- Node3 -->
<g id="node3" class="node"><title>Node3</title>
<g id="a_node3"><a xlink:href="../../d0/d08/class_tag_cloud.html#a6bfe3684ec30436e41287b4e858ce461" target="_top" xlink:title="TagCloud.main">
<polygon fill="white" stroke="black" points="302,-0.5 302,-19.5 388,-19.5 388,-0.5 302,-0.5"/>
<text text-anchor="middle" x="345" y="-7.5" font-family="Helvetica,sans-Serif" font-size="10.00">TagCloud.main</text>
</a>
</g>
</g>
<!-- Node2&#45;&gt;Node3 -->
<g id="edge2" class="edge"><title>Node2&#45;&gt;Node3</title>
<path fill="none" stroke="midnightblue" d="M276.248,-10C284.945,-10 293.637,-10 301.753,-10"/>
<polygon fill="midnightblue" stroke="midnightblue" points="276.071,-6.5001 266.071,-10 276.071,-13.5001 276.071,-6.5001"/>
</g>
</g>
</svg>
